# xmcd
#
# Track frame offsets: 
#        150
#        11625
#        24030
#        35285
#        45577
#        57167
#        68650
#        80622
#        94565
#        105685
#        118562
#        128835
#        141310
#        153100
#        163995
#        175725
#        187870
#        199375
#        209975
#        221160
#        232687
#        244290
#        257200
#        269035
#        280837
#        291135
#        302297
#        314990
#
# Disc length: 4360 seconds
#
# Revision: 1
# Processed by: cddbd v1.5.2PL0 Copyright (c) Steve Scherf et al.
# Submitted via: ExactAudioCopyFreeDBPlugin 1.0
#
DISCID=9911061c
DTITLE=Carl Butler - A Blue Million Tears
DYEAR=2004
DGENRE=Country
TTITLE0=The White Rose
TTITLE1=Plastic Heart
TTITLE2=The Heartbreak Express
TTITLE3=Country Mile
TTITLE4=String Of Empties
TTITLE5=You Plus Me
TTITLE6=Shake, Rattle And Roll
TTITLE7=No Guarantee On My Heart
TTITLE8=Our Last Rendezvous
TTITLE9=No Trespassing
TTITLE10=I Live My Life Alone
TTITLE11=Linda Lou
TTITLE12=Vicious Lies
TTITLE13=River Of Love
TTITLE14=A Blue Million Tears
TTITLE15=Everything Will Be The Same
TTITLE16=Stepping On My Heart
TTITLE17=A Penny For Your Thoughts (A Nickel For A Hug)
TTITLE18=I Need You So
TTITLE19=Alone Without You
TTITLE20=You Can't Insure A House Of Dreams
TTITLE21=For Fooling Around
TTITLE22=Crowded Out
TTITLE23=My Heart Tells Me
TTITLE24=So Close
TTITLE25=It's Wrong To Be Jealous
TTITLE26=A Victim Of Lies
TTITLE27=I Just Said Goodbye To My Dreams
EXTD=
EXTT0=
EXTT1=
EXTT2=
EXTT3=
EXTT4=
EXTT5=
EXTT6=
EXTT7=
EXTT8=
EXTT9=
EXTT10=
EXTT11=
EXTT12=
EXTT13=
EXTT14=
EXTT15=
EXTT16=
EXTT17=
EXTT18=
EXTT19=
EXTT20=
EXTT21=
EXTT22=
EXTT23=
EXTT24=
EXTT25=
EXTT26=
EXTT27=
PLAYORDER=
